<svg width="30" height="30" viewBox="0 0 30 30" fill="none" xmlns="http://www.w3.org/2000/svg">
<g clip-path="url(#clip0_1_468)">
<path d="M15 29.9998C6.70992 29.9998 0 23.2816 0 15C0 6.70969 6.70875 0 15 0C23.2903 0 29.9998 6.70875 29.9998 15C29.9998 23.2897 23.2809 29.9998 15 29.9998Z" fill="#6AA9FF"/>
<path d="M15 0V29.9998C23.2809 29.9998 29.9998 23.2896 29.9998 15C29.9998 6.70898 23.2903 0 15 0Z" fill="#4895FF"/>
<path d="M15 18.5156C10.6354 18.5156 6.47386 20.4236 3.4325 24.549C9.48892 31.8697 20.6994 31.8073 26.6741 24.4183C25.1987 22.9506 21.8756 18.5156 15 18.5156Z" fill="#BDECFC"/>
<path d="M26.6741 24.4182C23.8534 27.9062 19.6212 29.9998 15 29.9998V18.5156C21.8759 18.5156 25.1988 22.9512 26.6741 24.4182Z" fill="#7ED8F6"/>
<path d="M15 15.8789C12.0921 15.8789 9.72656 13.5132 9.72656 10.6055V8.84766C9.72656 5.93994 12.0921 3.57422 15 3.57422C17.9077 3.57422 20.2734 5.93994 20.2734 8.84766V10.6055C20.2734 13.5132 17.9077 15.8789 15 15.8789Z" fill="#BDECFC"/>
<path d="M15 3.57422V15.8789C17.9079 15.8789 20.2734 13.5134 20.2734 10.6055V8.84766C20.2734 5.93971 17.9079 3.57422 15 3.57422Z" fill="#7ED8F6"/>
</g>
<defs>
<clipPath id="clip0_1_468">
<rect width="30" height="30" fill="white"/>
</clipPath>
</defs>
</svg>
