<svg width="20" height="20" viewBox="0 0 20 20" fill="none" xmlns="http://www.w3.org/2000/svg">
<path fill-rule="evenodd" clip-rule="evenodd" d="M6.67179 0.555518C6.67182 0.40839 6.73026 0.267293 6.83427 0.163232C6.93828 0.0591711 7.07935 0.000660176 7.22647 0.000556641L12.773 0.000244141C12.9202 0.000585311 13.0612 0.0592582 13.1652 0.163403C13.2691 0.267547 13.3276 0.408667 13.3277 0.55583V1.92759H6.67179V0.555518ZM15.7914 19.2056C15.7772 19.4219 15.6809 19.6246 15.5222 19.7723C15.3635 19.9199 15.1544 20.0013 14.9376 19.9998H4.99812C4.78142 19.9992 4.57297 19.9166 4.41462 19.7687C4.25627 19.6208 4.15975 19.4184 4.14444 19.2023L3.2939 6.76017H16.6991L15.7916 19.2055L15.7914 19.2056ZM18.001 5.63329H1.99878V4.34423C1.99902 4.00234 2.13492 3.67453 2.37664 3.43275C2.61836 3.19098 2.94615 3.05501 3.28804 3.0547L16.7116 3.05427C17.0535 3.0548 17.3812 3.19088 17.6228 3.43268C17.8645 3.67448 18.0004 4.00226 18.0007 4.34411V5.63317L18.001 5.63329ZM7.42331 17.0337C7.42331 17.1077 7.43788 17.181 7.46619 17.2493C7.4945 17.3177 7.536 17.3798 7.58831 17.4321C7.64063 17.4844 7.70273 17.5259 7.77108 17.5542C7.83943 17.5825 7.91269 17.5971 7.98667 17.5971C8.06065 17.5971 8.13391 17.5825 8.20226 17.5542C8.27061 17.5259 8.33271 17.4844 8.38503 17.4321C8.43734 17.3798 8.47883 17.3177 8.50715 17.2493C8.53546 17.181 8.55003 17.1077 8.55003 17.0337V9.13345C8.54884 8.98487 8.48901 8.84278 8.38354 8.73812C8.27808 8.63346 8.13554 8.57471 7.98696 8.57466C7.83838 8.57461 7.6958 8.63326 7.59026 8.73785C7.48473 8.84243 7.42479 8.98448 7.42351 9.13306V17.0337H7.42331ZM11.4428 17.0337C11.4428 17.1832 11.5022 17.3265 11.6079 17.4321C11.7135 17.5378 11.8568 17.5972 12.0063 17.5972C12.1557 17.5972 12.299 17.5378 12.4047 17.4321C12.5104 17.3265 12.5697 17.1832 12.5697 17.0337V9.13345C12.5685 8.98485 12.5087 8.84274 12.4032 8.73807C12.2977 8.63339 12.1552 8.57463 12.0066 8.57458C11.858 8.57453 11.7154 8.63319 11.6098 8.73779C11.5043 8.84239 11.4443 8.98446 11.443 9.13306L11.4428 17.0337Z" fill="#E9484B"/>
</svg>
