<svg width="30" height="30" viewBox="0 0 30 30" fill="none" xmlns="http://www.w3.org/2000/svg">
<path d="M25.3125 8.81245V27.1875C25.3125 27.4361 25.2137 27.6745 25.0379 27.8504C24.8621 28.0262 24.6236 28.125 24.375 28.125H5.625C5.37636 28.125 5.1379 28.0262 4.96209 27.8504C4.78627 27.6745 4.6875 27.4361 4.6875 27.1875V8.81245L12.0562 3.71245L16.8938 2.9812L25.3125 8.81245Z" fill="#7ED8F6"/>
<path d="M26.25 1.875H22.5C22.2514 1.875 22.0129 1.97377 21.8371 2.14959C21.6613 2.3254 21.5625 2.56386 21.5625 2.8125V7.5C21.5625 7.64554 21.5964 7.78909 21.6615 7.91926C21.7266 8.04944 21.8211 8.16267 21.9375 8.25L25.6875 11.0625C25.8268 11.167 25.9924 11.2306 26.1658 11.2462C26.3392 11.2618 26.5135 11.2289 26.6693 11.151C26.825 11.0732 26.956 10.9535 27.0475 10.8054C27.139 10.6573 27.1875 10.4866 27.1875 10.3125V2.8125C27.1875 2.56386 27.0887 2.3254 26.9129 2.14959C26.7371 1.97377 26.4986 1.875 26.25 1.875Z" fill="#6AA9FF"/>
<path d="M28.125 11.2503V15.0003C28.1233 15.172 28.0754 15.3401 27.9864 15.4869C27.8973 15.6337 27.7703 15.7538 27.6188 15.8346C27.4849 15.9017 27.3373 15.937 27.1875 15.9378C26.9962 15.938 26.8096 15.8791 26.6532 15.769L25.3125 14.8409L15 7.70651L4.68753 14.8409L3.3469 15.769C3.20685 15.8661 3.04314 15.9234 2.87314 15.935C2.70313 15.9465 2.53317 15.9119 2.38128 15.8346C2.22975 15.7538 2.10277 15.6337 2.01369 15.4869C1.92461 15.3401 1.87671 15.172 1.87503 15.0003V11.2503C1.8739 11.0989 1.9101 10.9495 1.98041 10.8155C2.05072 10.6814 2.15298 10.5667 2.27815 10.4815L4.68753 8.81276L12.0563 3.71276L14.4657 2.04401C14.6222 1.93425 14.8088 1.87537 15 1.87537C15.1912 1.87537 15.3778 1.93425 15.5344 2.04401L16.8938 2.98151L25.3125 8.81276L27.7219 10.4815C27.8471 10.5667 27.9493 10.6814 28.0196 10.8155C28.09 10.9495 28.1261 11.0989 28.125 11.2503Z" fill="#4895FF"/>
<path d="M20.1562 18.7502V28.1252H9.84375V18.7502C9.84375 18.5016 9.94252 18.2631 10.1183 18.0873C10.2942 17.9115 10.5326 17.8127 10.7812 17.8127H19.2188C19.4674 17.8127 19.7058 17.9115 19.8817 18.0873C20.0575 18.2631 20.1562 18.5016 20.1562 18.7502Z" fill="#6AA9FF"/>
</svg>
