<svg width="30" height="30" viewBox="0 0 30 30" fill="none" xmlns="http://www.w3.org/2000/svg">
<g clip-path="url(#clip0_1_440)">
<path d="M28.2516 16.9049L30 16.6307V13.3693L28.2516 13.0951C26.8125 12.8525 26.3068 10.9465 27.4318 10.0219L28.7514 8.93496L27.1277 6.12363L25.5129 6.72832C24.1459 7.24043 22.759 5.85527 23.2717 4.48711L23.8764 2.87227L21.065 1.24863L19.9781 2.56816C19.0553 3.69082 17.148 3.18984 16.9049 1.74844L16.6307 0H13.3693L13.0951 1.74844C12.8508 3.1875 10.9465 3.69316 10.0219 2.56816L8.93496 1.24863L6.12363 2.87227L6.72832 4.48711C7.24043 5.8541 5.85527 7.24102 4.48711 6.72832L2.87227 6.12363L1.24863 8.93496L2.56816 10.0219C3.68848 10.9441 3.19336 12.8514 1.74844 13.0951L0 13.3693V16.6307L1.74844 16.9049C3.18164 17.148 3.69727 19.0488 2.56816 19.9781L1.24863 21.065L2.87227 23.8764L4.48711 23.2717C5.84766 22.7619 7.24336 24.1395 6.72832 25.5129L6.12363 27.1277L8.93496 28.7514L10.0219 27.4318C10.9436 26.3121 12.8502 26.8066 13.0951 28.2516L13.3693 30H16.6307L16.9049 28.2516C17.1463 26.8219 19.0471 26.3004 19.9781 27.4318L21.065 28.7514L23.8764 27.1277L23.2717 25.5129C22.7619 24.1523 24.1395 22.7566 25.5129 23.2717L27.1277 23.8764L28.7514 21.065L27.4318 19.9781C26.3092 19.0547 26.8102 17.1492 28.2516 16.9049ZM15 22.3242C10.9611 22.3242 7.67578 19.0389 7.67578 15C7.67578 10.9611 10.9611 7.67578 15 7.67578C19.0389 7.67578 22.3242 10.9611 22.3242 15C22.3242 19.0389 19.0389 22.3242 15 22.3242Z" fill="#7ED8F6"/>
<path d="M27.4318 19.9781L28.7514 21.065L27.1277 23.8764L25.5129 23.2717C24.1395 22.7566 22.7619 24.1523 23.2717 25.5129L23.8764 27.1277L21.065 28.7514L19.9781 27.4318C19.0471 26.3004 17.1463 26.8219 16.9049 28.2516L16.6307 30H15V22.3242C19.0389 22.3242 22.3242 19.0389 22.3242 15C22.3242 10.9611 19.0389 7.67578 15 7.67578V0H16.6307L16.9049 1.74844C17.148 3.18984 19.0553 3.69082 19.9781 2.56816L21.065 1.24863L23.8764 2.87227L23.2717 4.48711C22.759 5.85527 24.1459 7.24043 25.5129 6.72832L27.1277 6.12363L28.7514 8.93496L27.4318 10.0219C26.3068 10.9465 26.8125 12.8525 28.2516 13.0951L30 13.3693V16.6307L28.2516 16.9049C26.8102 17.1492 26.3092 19.0547 27.4318 19.9781Z" fill="#6AA9FF"/>
<path d="M15 7.08984C10.6383 7.08984 7.08984 10.6383 7.08984 15C7.08984 19.3617 10.6383 22.9102 15 22.9102C19.3617 22.9102 22.9102 19.3617 22.9102 15C22.9102 10.6383 19.3617 7.08984 15 7.08984ZM15 19.3945C12.5771 19.3945 10.6055 17.4234 10.6055 15C10.6055 12.5766 12.5771 10.6055 15 10.6055C17.4229 10.6055 19.3945 12.5766 19.3945 15C19.3945 17.4234 17.4229 19.3945 15 19.3945Z" fill="#6AA9FF"/>
<path d="M22.9102 15C22.9102 19.3617 19.3617 22.9102 15 22.9102V19.3945C17.4229 19.3945 19.3945 17.4234 19.3945 15C19.3945 12.5766 17.4229 10.6055 15 10.6055V7.08984C19.3617 7.08984 22.9102 10.6383 22.9102 15Z" fill="#4895FF"/>
</g>
<defs>
<clipPath id="clip0_1_440">
<rect width="30" height="30" fill="white"/>
</clipPath>
</defs>
</svg>
